<?xml version="1.0" encoding="utf-8"?>
<svg viewBox="0 0 500 500" xmlns="http://www.w3.org/2000/svg">
    <rect x="0.242" y="-0.024" width="501.113" height="501.113" style="fill: rgb(78, 78, 78);" />
    <path
        d="M 123.136 374.585 L 123.136 146.462 L 147.454 146.462 L 147.454 374.585 L 123.136 374.585 Z M 195.681 374.585 L 195.681 146.462 L 264.002 146.462 C 273.78 146.462 282.208 147.877 289.285 150.707 C 296.361 153.538 301.765 158.363 305.496 165.183 C 309.227 172.001 311.094 181.33 311.094 193.167 L 311.094 324.792 C 311.094 337.916 309.034 348.08 304.917 355.285 C 300.8 362.49 294.946 367.508 287.354 370.339 C 279.763 373.17 270.95 374.585 260.914 374.585 L 195.681 374.585 Z M 220.77 360.689 L 257.826 360.689 C 266.575 360.689 273.587 358.309 278.863 353.548 C 284.138 348.787 286.775 339.588 286.775 325.949 L 286.775 196.255 C 286.775 182.617 284.138 173.353 278.863 168.463 C 273.587 163.574 266.575 161.13 257.826 161.13 L 220.77 161.13 L 220.77 360.689 Z M 356.266 374.585 L 356.266 146.462 L 380.584 146.462 L 380.584 374.585 L 356.266 374.585 Z"
        style="fill: rgb(217, 217, 217);" />
</svg>